<?xml version="1.0" encoding="utf-8"?>
<!-- Generator: Adobe Illustrator 22.1.0, SVG Export Plug-In . SVG Version: 6.00 Build 0)  -->
<svg version="1.1" id="Layer_1" xmlns="http://www.w3.org/2000/svg" xmlns:xlink="http://www.w3.org/1999/xlink" x="0px" y="0px"
	 viewBox="0 0 64 64" style="enable-background:new 0 0 64 64;" xml:space="preserve">
<style type="text/css">
	.st0{fill:#507A99;}
	.st1{fill:#8DC1D3;}
	.st2{fill:#75ADBC;}
	.st3{fill:#F7F7F7;}
	.st4{fill:#DDC68A;}
	.st5{fill:#C1BEB8;}
	.st6{fill:#F4F0E9;}
	.st7{fill:#F9DF95;}
	.st8{fill:#9B5F37;}
	.st9{fill:#454749;}
	.st10{fill:#B4EDE7;}
	.st11{fill:#FFFFFF;}
</style>
<rect x="-1.4" y="-0.4" class="st0" width="67.2" height="64.6"/>
<path class="st1" d="M66.6,65.6H-3.3c-3.3,0,6.6-10.9,10-12.2s25,1.8,25,1.8s21.5-3.7,24.9-1.8C60,55.4,70,65.6,66.6,65.6z"/>
<g>
	<path class="st2" d="M14.6,52.2c-3.3,3.2-5.4,7-6.5,10.7c5.5-4,13.1-5.5,20.6-2.9C25.3,56.3,20.4,53.4,14.6,52.2z"/>
</g>
<g>
	<path class="st2" d="M49.6,52c3.5,3.1,5.9,6.7,7.1,10.4c-5.7-3.8-13.2-4.8-20.3-2.1C39.4,56.6,44,53.5,49.6,52z"/>
</g>
<g>
	<path class="st3" d="M14.3,51.9c-3.4,3.1-5.7,6.8-6.8,10.6c5.6-3.9,13.2-5.1,20.5-2.5C24.7,56.2,20,53.2,14.3,51.9z"/>
</g>
<g>
	<path class="st3" d="M49.5,51.7c3.6,2.9,6.1,6.5,7.5,10.2c-5.8-3.6-13.3-4.3-20.1-1.5C39.7,56.6,44.1,53.4,49.5,51.7z"/>
</g>
<ellipse class="st4" cx="31.9" cy="53.5" rx="12.8" ry="8.3"/>
<ellipse class="st5" cx="32.7" cy="11.6" rx="17.2" ry="10.2"/>
<ellipse class="st6" cx="32.7" cy="15.6" rx="20.2" ry="10.2"/>
<path class="st7" d="M57.3,26.8c-15.6-15.6-35.1-15.7-50.7,0l0.1,17.3c0,7.5,7.4,15.8,25.7,15.8c17.3,0,24.9-6.8,24.9-15.8
	L57.3,26.8"/>
<path class="st8" d="M39.2,49.7c0.1,0.2,0.2,0.4,0.2,0.6c0,1.7-3.4,3.8-7.5,3.8s-7.5-2.1-7.5-3.8c0-0.2,0.1-0.5,0.2-0.6
	c0,0,3.2,1.5,7.3,1.5C36,51.1,39.2,49.7,39.2,49.7"/>
<path class="st5" d="M32,7.1c-29.5,0-35.8,23.7-25.2,32c0,0-2.8-13.2,18.5-18.8C47.2,14.5,42.1,7.1,32,7.1"/>
<path class="st5" d="M32.1,6.9c29.5,0,35.8,23.7,25.2,32c0,0,2.8-13.2-18.5-18.8C16.8,14.3,21.9,6.9,32.1,6.9"/>
<path class="st8" d="M42.8,52.3c-0.6,0-1.1-0.2-1.6-0.4s-1-0.5-1.4-0.9c-0.8-0.7-1.6-1.8-1.6-2.9c0.8,0.8,1.5,1.5,2.2,2.2
	C41.2,51,42,51.6,42.8,52.3"/>
<path class="st8" d="M21,52.3c0.8-0.8,1.7-1.3,2.4-2c0.8-0.7,1.5-1.3,2.2-2.2c0,1.2-0.7,2.2-1.6,2.9c-0.4,0.4-0.9,0.7-1.4,0.9
	C22.2,52.2,21.6,52.3,21,52.3"/>
<path class="st9" d="M17.8,38.9l-0.3-3c0.8-0.1,1.9-0.3,3.1-0.5c5.9-1.1,15.7-3,26.4,0.6l-1,2.8c-9.9-3.4-19.2-1.6-24.8-0.5
	C19.8,38.6,18.6,38.8,17.8,38.9"/>
<ellipse class="st9" cx="19.7" cy="37.5" rx="9" ry="9"/>
<ellipse class="st10" cx="19.7" cy="37.5" rx="6" ry="6"/>
<ellipse class="st9" cx="44.3" cy="37.5" rx="9" ry="9"/>
<ellipse class="st10" cx="44.3" cy="37.5" rx="6" ry="6"/>
<path class="st11" d="M49.7,37.5c0-3-2.3-5.4-5.2-5.8c2.7,0.7,4.6,3.1,4.6,5.8s-1.9,5.1-4.6,5.8C47.4,42.9,49.7,40.5,49.7,37.5z"/>
<path class="st11" d="M25.2,37.5c0-3-2.3-5.4-5.2-5.8c2.7,0.7,4.6,3.1,4.6,5.8s-1.9,5.1-4.6,5.8C22.9,42.9,25.2,40.5,25.2,37.5z"/>
</svg>
